Seven.ufo
<glyph name="ampersand" format="1">
  <advance width="904"/>
  <unicode hex="0026"/>
  <outline>
    <contour>
      <point x="601" y="754" type="line"/>
      <point x="558" y="823"/>
      <point x="463" y="844"/>
      <point x="370" y="844" type="curve" smooth="yes"/>
      <point x="302" y="844"/>
      <point x="232" y="837"/>
      <point x="177" y="797" type="curve" smooth="yes"/>
      <point x="133" y="765"/>
      <point x="113" y="711"/>
      <point x="113" y="656" type="curve" smooth="yes"/>
      <point x="113" y="601"/>
      <point x="133" y="547"/>
      <point x="177" y="515" type="curve" smooth="yes"/>
      <point x="232" y="475"/>
      <point x="302" y="468"/>
      <point x="370" y="468" type="curve" smooth="yes"/>
      <point x="822" y="468" type="line"/>
      <point x="822" y="412" type="line"/>
      <point x="688" y="412" type="line"/>
      <point x="688" y="224" type="line" smooth="yes"/>
      <point x="688" y="154"/>
      <point x="664" y="84"/>
      <point x="609" y="41" type="curve"/>
      <point x="541" y="-10"/>
      <point x="454" y="-20"/>
      <point x="370" y="-20" type="curve" smooth="yes"/>
      <point x="285" y="-20"/>
      <point x="198" y="-10"/>
      <point x="131" y="41" type="curve" smooth="yes"/>
      <point x="75" y="84"/>
      <point x="51" y="154"/>
      <point x="51" y="224" type="curve" smooth="yes"/>
      <point x="51" y="294"/>
      <point x="75" y="364"/>
      <point x="131" y="407" type="curve" smooth="yes"/>
      <point x="149" y="421"/>
      <point x="168" y="432"/>
      <point x="189" y="440" type="curve"/>
      <point x="168" y="448"/>
      <point x="149" y="459"/>
      <point x="131" y="473" type="curve" smooth="yes"/>
      <point x="75" y="516"/>
      <point x="51" y="586"/>
      <point x="51" y="656" type="curve" smooth="yes"/>
      <point x="51" y="726"/>
      <point x="75" y="796"/>
      <point x="131" y="839" type="curve" smooth="yes"/>
      <point x="198" y="890"/>
      <point x="285" y="900"/>
      <point x="370" y="900" type="curve" smooth="yes"/>
      <point x="454" y="900"/>
      <point x="541" y="890"/>
      <point x="609" y="839" type="curve" smooth="yes"/>
      <point x="628" y="824"/>
      <point x="643" y="806"/>
      <point x="655" y="786" type="curve"/>
    </contour>
    <contour>
      <point x="627" y="224" type="curve" smooth="yes"/>
      <point x="627" y="412" type="line"/>
      <point x="370" y="412" type="line" smooth="yes"/>
      <point x="302" y="412"/>
      <point x="232" y="405"/>
      <point x="177" y="365" type="curve" smooth="yes"/>
      <point x="133" y="333"/>
      <point x="113" y="279"/>
      <point x="113" y="224" type="curve" smooth="yes"/>
      <point x="113" y="169"/>
      <point x="133" y="115"/>
      <point x="177" y="83" type="curve" smooth="yes"/>
      <point x="232" y="43"/>
      <point x="302" y="36"/>
      <point x="370" y="36" type="curve" smooth="yes"/>
      <point x="438" y="36"/>
      <point x="508" y="43"/>
      <point x="562" y="83" type="curve" smooth="yes"/>
      <point x="606" y="115"/>
      <point x="627" y="169"/>
    </contour>
  </outline>
</glyph>
<glyph name="one" format="1">
  <advance width="714"/>
  <unicode hex="0031"/>
  <outline>
    <contour>
      <point x="344" y="0" type="line"/>
      <point x="344" y="861" type="line"/>
      <point x="358" y="855" type="line"/>
      <point x="187" y="572" type="line"/>
      <point x="136" y="603" type="line"/>
      <point x="306" y="880" type="line"/>
      <point x="406" y="880" type="line"/>
      <point x="406" y="0" type="line"/>
    </contour>
  </outline>
</glyph>
<glyph name="two" format="1">
  <advance width="684"/>
  <unicode hex="0032"/>
  <outline>
    <contour>
      <point x="81" y="786" type="line"/>
      <point x="92" y="806"/>
      <point x="106" y="824"/>
      <point x="124" y="839" type="curve" smooth="yes"/>
      <point x="184" y="889"/>
      <point x="264" y="900"/>
      <point x="342" y="900" type="curve" smooth="yes"/>
      <point x="420" y="900"/>
      <point x="500" y="889"/>
      <point x="560" y="839" type="curve" smooth="yes"/>
      <point x="612" y="795"/>
      <point x="632" y="725"/>
      <point x="632" y="656" type="curve" smooth="yes"/>
      <point x="632" y="587"/>
      <point x="612" y="517"/>
      <point x="560" y="473" type="curve" smooth="yes"/>
      <point x="500" y="423"/>
      <point x="420" y="412"/>
      <point x="342" y="412" type="curve" smooth="yes"/>
      <point x="278" y="412"/>
      <point x="213" y="396"/>
      <point x="170" y="350" type="curve"/>
      <point x="125" y="300"/>
      <point x="113" y="230"/>
      <point x="113" y="163" type="curve" smooth="yes"/>
      <point x="113" y="56" type="line"/>
      <point x="629" y="56" type="line"/>
      <point x="629" y="0" type="line"/>
      <point x="51" y="0" type="line"/>
      <point x="51" y="163" type="line" smooth="yes"/>
      <point x="51" y="246"/>
      <point x="67" y="332"/>
      <point x="124" y="392" type="curve" smooth="yes"/>
      <point x="179" y="450"/>
      <point x="261" y="468"/>
      <point x="342" y="468" type="curve" smooth="yes"/>
      <point x="403" y="468"/>
      <point x="466" y="476"/>
      <point x="513" y="515" type="curve" smooth="yes"/>
      <point x="554" y="549"/>
      <point x="571" y="603"/>
      <point x="571" y="656" type="curve" smooth="yes"/>
      <point x="571" y="709"/>
      <point x="554" y="763"/>
      <point x="513" y="797" type="curve" smooth="yes"/>
      <point x="466" y="836"/>
      <point x="403" y="844"/>
      <point x="342" y="844" type="curve" smooth="yes"/>
      <point x="281" y="844"/>
      <point x="217" y="836"/>
      <point x="170" y="797" type="curve" smooth="yes"/>
      <point x="157" y="786"/>
      <point x="147" y="774"/>
      <point x="138" y="760" type="curve"/>
    </contour>
  </outline>
</glyph>
<glyph name="three" format="1">
  <advance width="714"/>
  <unicode hex="0033"/>
  <outline>
    <contour>
      <point x="87" y="786" type="line"/>
      <point x="135" y="873"/>
      <point x="235" y="900"/>
      <point x="348" y="900" type="curve" smooth="yes"/>
      <point x="541" y="900"/>
      <point x="638" y="820"/>
      <point x="638" y="656" type="curve" smooth="yes"/>
      <point x="638" y="537"/>
      <point x="590" y="468"/>
      <point x="447" y="425" type="curve"/>
      <point x="447" y="458" type="line"/>
      <point x="591" y="419"/>
      <point x="638" y="343"/>
      <point x="638" y="224" type="curve" smooth="yes"/>
      <point x="638" y="65"/>
      <point x="540" y="-20"/>
      <point x="348" y="-20" type="curve" smooth="yes"/>
      <point x="232" y="-20"/>
      <point x="135" y="7"/>
      <point x="87" y="94" type="curve"/>
      <point x="142" y="124" type="line"/>
      <point x="181" y="59"/>
      <point x="249" y="36"/>
      <point x="348" y="36" type="curve" smooth="yes"/>
      <point x="511" y="36"/>
      <point x="577" y="110"/>
      <point x="577" y="224" type="curve" smooth="yes"/>
      <point x="577" y="338"/>
      <point x="516" y="412"/>
      <point x="348" y="412" type="curve"/>
      <point x="348" y="468" type="line"/>
      <point x="513" y="468"/>
      <point x="577" y="542"/>
      <point x="577" y="656" type="curve" smooth="yes"/>
      <point x="577" y="800"/>
      <point x="476" y="844"/>
      <point x="348" y="844" type="curve" smooth="yes"/>
      <point x="250" y="844"/>
      <point x="185" y="824"/>
      <point x="144" y="760" type="curve"/>
    </contour>
  </outline>
</glyph>
<glyph name="four" format="1">
  <advance width="714"/>
  <unicode hex="0034"/>
  <outline>
    <contour>
      <point x="442" y="0" type="line"/>
      <point x="442" y="286" type="line"/>
      <point x="462" y="259" type="line"/>
      <point x="82" y="259" type="line"/>
      <point x="45" y="304" type="line"/>
      <point x="433" y="880" type="line"/>
      <point x="503" y="880" type="line"/>
      <point x="503" y="293" type="line"/>
      <point x="481" y="315" type="line"/>
      <point x="657" y="315" type="line"/>
      <point x="657" y="259" type="line"/>
      <point x="481" y="259" type="line"/>
      <point x="503" y="286" type="line"/>
      <point x="503" y="0" type="line"/>
    </contour>
    <contour>
      <point x="462" y="315" type="line"/>
      <point x="442" y="295" type="line"/>
      <point x="442" y="869" type="line"/>
      <point x="472" y="841" type="line"/>
      <point x="99" y="288" type="line"/>
      <point x="83" y="315" type="line"/>
    </contour>
  </outline>
</glyph>
<glyph name="five" format="1">
  <advance width="684"/>
  <unicode hex="0035"/>
  <outline>
    <contour>
      <point x="170" y="519" type="curve"/>
      <point x="170" y="880" type="line"/>
      <point x="601" y="880" type="line"/>
      <point x="601" y="824" type="line"/>
      <point x="232" y="824" type="line"/>
      <point x="232" y="543" type="line"/>
      <point x="267" y="552"/>
      <point x="305" y="556"/>
      <point x="342" y="556" type="curve" smooth="yes"/>
      <point x="421" y="556"/>
      <point x="503" y="540"/>
      <point x="560" y="484" type="curve" smooth="yes"/>
      <point x="616" y="428"/>
      <point x="632" y="347"/>
      <point x="632" y="268" type="curve" smooth="yes"/>
      <point x="632" y="189"/>
      <point x="616" y="108"/>
      <point x="560" y="52" type="curve" smooth="yes"/>
      <point x="503" y="-4"/>
      <point x="421" y="-20"/>
      <point x="342" y="-20" type="curve" smooth="yes"/>
      <point x="262" y="-20"/>
      <point x="180" y="-4"/>
      <point x="124" y="52" type="curve" smooth="yes"/>
      <point x="107" y="69"/>
      <point x="94" y="87"/>
      <point x="84" y="108" type="curve"/>
      <point x="140" y="136" type="line"/>
      <point x="148" y="121"/>
      <point x="158" y="107"/>
      <point x="170" y="94" type="curve" smooth="yes"/>
      <point x="214" y="49"/>
      <point x="279" y="36"/>
      <point x="342" y="36" type="curve" smooth="yes"/>
      <point x="405" y="36"/>
      <point x="469" y="49"/>
      <point x="513" y="94" type="curve" smooth="yes"/>
      <point x="558" y="139"/>
      <point x="571" y="204"/>
      <point x="571" y="268" type="curve" smooth="yes"/>
      <point x="571" y="332"/>
      <point x="558" y="397"/>
      <point x="513" y="442" type="curve" smooth="yes"/>
      <point x="469" y="487"/>
      <point x="405" y="500"/>
      <point x="342" y="500" type="curve" smooth="yes"/>
      <point x="293" y="500"/>
      <point x="243" y="492"/>
      <point x="203" y="467" type="curve"/>
      <point x="153" y="508" type="line"/>
      <point x="159" y="512"/>
      <point x="164" y="516"/>
    </contour>
  </outline>
</glyph>
<glyph name="eight" format="1">
  <advance width="715"/>
  <unicode hex="0038"/>
  <outline>
    <contour>
      <point x="358" y="844" type="curve" smooth="yes"/>
      <point x="246" y="844"/>
      <point x="129" y="814"/>
      <point x="129" y="667" type="curve" smooth="yes"/>
      <point x="129" y="521"/>
      <point x="246" y="490"/>
      <point x="358" y="490" type="curve" smooth="yes"/>
      <point x="470" y="490"/>
      <point x="587" y="523"/>
      <point x="587" y="667" type="curve" smooth="yes"/>
      <point x="587" y="813"/>
      <point x="470" y="844"/>
    </contour>
    <contour>
      <point x="358" y="900" type="curve" smooth="yes"/>
      <point x="501" y="900"/>
      <point x="648" y="859"/>
      <point x="648" y="667" type="curve" smooth="yes"/>
      <point x="648" y="501"/>
      <point x="509" y="462"/>
      <point x="411" y="449" type="curve"/>
      <point x="411" y="472" type="line"/>
      <point x="510" y="451"/>
      <point x="648" y="427"/>
      <point x="648" y="235" type="curve" smooth="yes"/>
      <point x="648" y="29"/>
      <point x="506" y="-20"/>
      <point x="358" y="-20" type="curve" smooth="yes"/>
      <point x="207" y="-20"/>
      <point x="67" y="29"/>
      <point x="67" y="235" type="curve" smooth="yes"/>
      <point x="67" y="427"/>
      <point x="209" y="451"/>
      <point x="295" y="472" type="curve"/>
      <point x="295" y="449" type="line"/>
      <point x="207" y="462"/>
      <point x="67" y="501"/>
      <point x="67" y="667" type="curve" smooth="yes"/>
      <point x="67" y="857"/>
      <point x="212" y="900"/>
    </contour>
    <contour>
      <point x="358" y="434" type="curve" smooth="yes"/>
      <point x="241" y="434"/>
      <point x="129" y="394"/>
      <point x="129" y="235" type="curve" smooth="yes"/>
      <point x="129" y="73"/>
      <point x="241" y="36"/>
      <point x="358" y="36" type="curve" smooth="yes"/>
      <point x="474" y="36"/>
      <point x="587" y="75"/>
      <point x="587" y="235" type="curve" smooth="yes"/>
      <point x="587" y="396"/>
      <point x="474" y="434"/>
    </contour>
  </outline>
</glyph>
<glyph name="B" format="1">
  <advance width="717"/>
  <unicode hex="0042"/>
  <outline>
    <contour>
      <point x="120.5" y="454" type="line"/>
      <point x="372.5" y="454" type="line" smooth="yes"/>
      <point x="625" y="454"/>
      <point x="650.5" y="580"/>
      <point x="650.5" y="666" type="curve" smooth="yes"/>
      <point x="650.5" y="824.968"/>
      <point x="525.229" y="880"/>
      <point x="372.5" y="880" type="curve" smooth="yes"/>
      <point x="120.5" y="880" type="line"/>
      <point x="120.5" y="824" type="line"/>
      <point x="372.5" y="824" type="line" smooth="yes"/>
      <point x="488.075" y="824"/>
      <point x="589.5" y="786.092"/>
      <point x="589.5" y="666" type="curve" smooth="yes"/>
      <point x="589.5" y="546.718"/>
      <point x="486.79" y="505"/>
      <point x="372.5" y="505" type="curve" smooth="yes"/>
      <point x="120.5" y="505" type="line"/>
    </contour>
    <contour>
      <point x="328.5" y="454" type="line"/>
      <point x="409" y="454" type="line" smooth="yes"/>
      <point x="541.744" y="454"/>
      <point x="627" y="388.528"/>
      <point x="627" y="254" type="curve" smooth="yes"/>
      <point x="627" y="119.934"/>
      <point x="540.45" y="56"/>
      <point x="409" y="56" type="curve" smooth="yes"/>
      <point x="91.5" y="56" type="line"/>
      <point x="91.5" y="0" type="line"/>
      <point x="409" y="0" type="line" smooth="yes"/>
      <point x="577.795" y="0"/>
      <point x="688" y="81.9795"/>
      <point x="688" y="254" type="curve" smooth="yes"/>
      <point x="688" y="478"/>
      <point x="498.5" y="505"/>
      <point x="409" y="505" type="curve" smooth="yes"/>
      <point x="328.5" y="505" type="line"/>
    </contour>
    <contour>
      <point x="143.5" y="0" type="line"/>
      <point x="143.5" y="880" type="line"/>
      <point x="81.5" y="880" type="line"/>
      <point x="81.5" y="0" type="line"/>
    </contour>
  </outline>
</glyph>
<glyph name="C" format="1">
  <advance width="904"/>
  <unicode hex="0043"/>
  <outline>
    <contour>
      <point x="798" y="719" type="curve"/>
      <point x="742" y="690" type="line"/>
      <point x="686.234" y="790.378"/>
      <point x="578.5" y="844"/>
      <point x="452" y="844" type="curve" smooth="yes"/>
      <point x="217.847" y="844"/>
      <point x="113" y="669.471"/>
      <point x="113" y="440" type="curve" smooth="yes"/>
      <point x="113" y="210.783"/>
      <point x="217.555" y="36"/>
      <point x="452" y="36" type="curve" smooth="yes"/>
      <point x="578.473" y="36"/>
      <point x="686.179" y="89.5219"/>
      <point x="742" y="190" type="curve"/>
      <point x="798" y="161" type="line"/>
      <point x="730.63" y="41.8077"/>
      <point x="604.034" y="-20"/>
      <point x="452" y="-20" type="curve" smooth="yes"/>
      <point x="180.481" y="-20"/>
      <point x="51" y="172.655"/>
      <point x="51" y="440" type="curve" smooth="yes"/>
      <point x="51" y="707.04"/>
      <point x="180.147" y="900"/>
      <point x="452" y="900" type="curve" smooth="yes"/>
      <point x="603.998" y="900"/>
      <point x="730.561" y="838.315"/>
    </contour>
  </outline>
</glyph>
<glyph name="D" format="1">
  <advance width="825"/>
  <unicode hex="0044"/>
  <outline>
    <contour>
      <point x="82" y="0" type="line"/>
      <point x="82" y="880" type="line"/>
      <point x="286" y="880" type="line" smooth="yes"/>
      <point x="418" y="880"/>
      <point x="554" y="858"/>
      <point x="652" y="770" type="curve" smooth="yes"/>
      <point x="742" y="688"/>
      <point x="773" y="563"/>
      <point x="773" y="440" type="curve" smooth="yes"/>
      <point x="773" y="317"/>
      <point x="742" y="192"/>
      <point x="652" y="110" type="curve" smooth="yes"/>
      <point x="554" y="22"/>
      <point x="418" y="0"/>
      <point x="286" y="0" type="curve" smooth="yes"/>
    </contour>
    <contour>
      <point x="144" y="824" type="line"/>
      <point x="144" y="56" type="line"/>
      <point x="286" y="56" type="line" smooth="yes"/>
      <point x="401" y="56"/>
      <point x="520" y="75"/>
      <point x="605" y="152" type="curve" smooth="yes"/>
      <point x="685" y="224"/>
      <point x="712" y="333"/>
      <point x="712" y="440" type="curve" smooth="yes"/>
      <point x="712" y="547"/>
      <point x="685" y="656"/>
      <point x="605" y="728" type="curve" smooth="yes"/>
      <point x="520" y="805"/>
      <point x="401" y="824"/>
      <point x="286" y="824" type="curve" smooth="yes"/>
    </contour>
  </outline>
</glyph>
<glyph name="F" format="1">
  <advance width="719"/>
  <unicode hex="0046"/>
  <outline>
    <contour>
      <point x="96" y="0" type="line"/>
      <point x="96" y="880" type="line"/>
      <point x="677" y="880" type="line"/>
      <point x="677" y="824" type="line"/>
      <point x="130" y="824" type="line"/>
      <point x="158" y="854" type="line"/>
      <point x="158" y="466" type="line"/>
      <point x="129" y="486" type="line"/>
      <point x="646" y="486" type="line"/>
      <point x="646" y="430" type="line"/>
      <point x="130" y="430" type="line"/>
      <point x="158" y="455" type="line"/>
      <point x="158" y="0" type="line"/>
    </contour>
  </outline>
</glyph>
<glyph name="H" format="1">
  <advance width="819"/>
  <unicode hex="0048"/>
  <outline>
    <contour>
      <point x="737" y="0" type="line"/>
      <point x="675" y="0" type="line"/>
      <point x="675" y="430" type="line"/>
      <point x="144" y="430" type="line"/>
      <point x="144" y="0" type="line"/>
      <point x="82" y="0" type="line"/>
      <point x="82" y="880" type="line"/>
      <point x="144" y="880" type="line"/>
      <point x="144" y="486" type="line"/>
      <point x="675" y="486" type="line"/>
      <point x="675" y="880" type="line"/>
      <point x="737" y="880" type="line"/>
    </contour>
  </outline>
</glyph>
<glyph name="J" format="1">
  <advance width="714"/>
  <unicode hex="004A"/>
  <outline>
    <contour>
      <point x="632" y="880" type="line"/>
      <point x="632" y="289" type="line" smooth="yes"/>
      <point x="632" y="205"/>
      <point x="617" y="118"/>
      <point x="560" y="57" type="curve" smooth="yes"/>
      <point x="505" y="-1"/>
      <point x="422" y="-20"/>
      <point x="342" y="-20" type="curve" smooth="yes"/>
      <point x="261" y="-20"/>
      <point x="179" y="-1"/>
      <point x="124" y="57" type="curve" smooth="yes"/>
      <point x="102" y="80"/>
      <point x="87" y="107"/>
      <point x="75" y="136" type="curve"/>
      <point x="134" y="159" type="line"/>
      <point x="142" y="137"/>
      <point x="154" y="117"/>
      <point x="170" y="99" type="curve" smooth="yes"/>
      <point x="213" y="52"/>
      <point x="278" y="36"/>
      <point x="342" y="36" type="curve" smooth="yes"/>
      <point x="406" y="36"/>
      <point x="471" y="52"/>
      <point x="513" y="99" type="curve" smooth="yes"/>
      <point x="559" y="150"/>
      <point x="571" y="221"/>
      <point x="571" y="289" type="curve" smooth="yes"/>
      <point x="571" y="880" type="line"/>
    </contour>
  </outline>
</glyph>
<glyph name="K" format="1">
  <advance width="788"/>
  <unicode hex="004B"/>
  <outline>
    <contour>
      <point x="356" y="566" type="line"/>
      <point x="737" y="0" type="line"/>
      <point x="663" y="0" type="line"/>
      <point x="313" y="530" type="line"/>
    </contour>
    <contour>
      <point x="655" y="880" type="line"/>
      <point x="737" y="880" type="line"/>
      <point x="144" y="322" type="line"/>
      <point x="144" y="396" type="line"/>
    </contour>
    <contour>
      <point x="144" y="0" type="line"/>
      <point x="82" y="0" type="line"/>
      <point x="82" y="880" type="line"/>
      <point x="144" y="880" type="line"/>
    </contour>
  </outline>
</glyph>
<glyph name="L" format="1">
  <advance width="678"/>
  <unicode hex="004C"/>
  <outline>
    <contour>
      <point x="82" y="0" type="line"/>
      <point x="82" y="880" type="line"/>
      <point x="144" y="880" type="line"/>
      <point x="144" y="56" type="line"/>
      <point x="626" y="56" type="line"/>
      <point x="626" y="0" type="line"/>
    </contour>
  </outline>
</glyph>
<glyph name="P" format="1">
  <advance width="693"/>
  <unicode hex="0050"/>
  <outline>
    <contour>
      <point x="121" y="431" type="line"/>
      <point x="373" y="431" type="line" smooth="yes"/>
      <point x="625.5" y="431"/>
      <point x="651" y="576"/>
      <point x="651" y="662" type="curve" smooth="yes"/>
      <point x="651" y="820.968"/>
      <point x="525.729" y="880"/>
      <point x="373" y="880" type="curve" smooth="yes"/>
      <point x="121" y="880" type="line"/>
      <point x="121" y="824" type="line"/>
      <point x="373" y="824" type="line" smooth="yes"/>
      <point x="488.575" y="824"/>
      <point x="590" y="782.092"/>
      <point x="590" y="662" type="curve" smooth="yes"/>
      <point x="590" y="542.718"/>
      <point x="527.29" y="484"/>
      <point x="373" y="484" type="curve" smooth="yes"/>
      <point x="121" y="484" type="line"/>
    </contour>
    <contour>
      <point x="144" y="0" type="line"/>
      <point x="144" y="880" type="line"/>
      <point x="82" y="880" type="line"/>
      <point x="82" y="0" type="line"/>
    </contour>
  </outline>
</glyph>
<glyph name="U" format="1">
  <advance width="793"/>
  <unicode hex="0055"/>
  <outline>
    <contour>
      <point x="724.0" y="880.0" type="line"/>
      <point x="724.0" y="289.0" type="line" smooth="yes"/>
      <point x="724.0" y="93.0"/>
      <point x="631.0" y="-20.0"/>
      <point x="397.0" y="-20.0" type="curve" smooth="yes"/>
      <point x="161.0" y="-20.0"/>
      <point x="69.0" y="93.0"/>
      <point x="69.0" y="289.0" type="curve" smooth="yes"/>
      <point x="69.0" y="880.0" type="line"/>
      <point x="131.0" y="880.0" type="line"/>
      <point x="131.0" y="289.0" type="line" smooth="yes"/>
      <point x="131.0" y="127.0"/>
      <point x="194.0" y="36.0"/>
      <point x="397.0" y="36.0" type="curve" smooth="yes"/>
      <point x="598.0" y="36.0"/>
      <point x="662.0" y="126.0"/>
      <point x="662.0" y="289.0" type="curve" smooth="yes"/>
      <point x="662.0" y="880.0" type="line"/>
    </contour>
  </outline>
</glyph>
<glyph name="X" format="1">
  <advance width="757"/>
  <unicode hex="0058"/>
  <outline>
    <contour>
      <point x="51" y="880" type="line"/>
      <point x="125" y="880" type="line"/>
      <point x="375" y="501" type="line"/>
      <point x="620" y="880" type="line"/>
      <point x="687" y="880" type="line"/>
      <point x="409" y="450" type="line"/>
      <point x="706" y="0" type="line"/>
      <point x="632" y="0" type="line"/>
      <point x="373" y="393" type="line"/>
      <point x="119" y="0" type="line"/>
      <point x="51" y="0" type="line"/>
      <point x="338" y="445" type="line"/>
    </contour>
  </outline>
</glyph>
<glyph name="a" format="1">
  <advance width="592"/>
  <unicode hex="0061"/>
  <outline>
    <contour>
      <point x="255" y="-20" type="curve" smooth="yes"/>
      <point x="363" y="-20"/>
      <point x="433" y="23"/>
      <point x="485" y="65" type="curve"/>
      <point x="465" y="69" type="line"/>
      <point x="465" y="0" type="line"/>
      <point x="527" y="0" type="line"/>
      <point x="527" y="473" type="line" smooth="yes"/>
      <point x="527" y="592"/>
      <point x="413" y="631"/>
      <point x="292" y="631" type="curve" smooth="yes"/>
      <point x="205" y="631"/>
      <point x="110" y="613"/>
      <point x="71" y="551" type="curve"/>
      <point x="111" y="518" type="line"/>
      <point x="150" y="564"/>
      <point x="219" y="578"/>
      <point x="292" y="578" type="curve" smooth="yes"/>
      <point x="376" y="578"/>
      <point x="465" y="555"/>
      <point x="465" y="473" type="curve" smooth="yes"/>
      <point x="465" y="339" type="line"/>
      <point x="495" y="356" type="line"/>
      <point x="287" y="356" type="line" smooth="yes"/>
      <point x="144" y="356"/>
      <point x="51" y="321"/>
      <point x="51" y="187" type="curve" smooth="yes"/>
      <point x="51" y="60"/>
      <point x="143" y="-20"/>
    </contour>
    <contour>
      <point x="270" y="34" type="curve" smooth="yes"/>
      <point x="189" y="34"/>
      <point x="113" y="75"/>
      <point x="113" y="187" type="curve" smooth="yes"/>
      <point x="113" y="288"/>
      <point x="181" y="303"/>
      <point x="287" y="303" type="curve" smooth="yes"/>
      <point x="490" y="303" type="line"/>
      <point x="465" y="326" type="line"/>
      <point x="465" y="82" type="line"/>
      <point x="488" y="119" type="line"/>
      <point x="427" y="64"/>
      <point x="345" y="34"/>
    </contour>
  </outline>
</glyph>
<glyph name="e" format="1">
  <advance width="669"/>
  <unicode hex="0065"/>
  <outline>
    <contour>
      <point x="350" y="34" type="curve"/>
      <point x="195" y="34"/>
      <point x="113.0" y="145.874181225"/>
      <point x="113" y="305" type="curve"/>
      <point x="82" y="289" type="line"/>
      <point x="612" y="289" type="line"/>
      <point x="612" y="307" type="line" smooth="yes"/>
      <point x="612" y="490"/>
      <point x="533" y="631"/>
      <point x="334" y="631" type="curve" smooth="yes"/>
      <point x="136" y="631"/>
      <point x="51" y="487"/>
      <point x="51" y="307" type="curve" smooth="yes"/>
      <point x="51" y="126"/>
      <point x="151" y="-19"/>
      <point x="350" y="-19" type="curve"/>
      <point x="451" y="-19"/>
      <point x="544" y="20"/>
      <point x="591" y="95" type="curve"/>
      <point x="543" y="123" type="line"/>
      <point x="502" y="61"/>
      <point x="424" y="34"/>
    </contour>
    <contour>
      <point x="334" y="578" type="curve" smooth="yes"/>
      <point x="453" y="578"/>
      <point x="550" y="521"/>
      <point x="550" y="312" type="curve"/>
      <point x="583" y="335" type="line"/>
      <point x="80" y="335" type="line"/>
      <point x="114" y="320" type="line"/>
      <point x="114" y="472"/>
      <point x="185" y="578"/>
    </contour>
  </outline>
</glyph>
<glyph name="f" format="1">
  <advance width="537"/>
  <unicode hex="0066"/>
  <outline>
    <contour>
      <point x="445" y="749" type="line"/>
      <point x="435" y="777"/>
      <point x="410" y="794"/>
      <point x="375" y="794" type="curve" smooth="yes"/>
      <point x="353" y="794"/>
      <point x="332" y="787"/>
      <point x="318" y="771" type="curve" smooth="yes"/>
      <point x="302" y="752"/>
      <point x="299" y="728"/>
      <point x="299" y="704" type="curve" smooth="yes"/>
      <point x="299" y="612" type="line"/>
      <point x="454" y="612" type="line"/>
      <point x="454" y="560" type="line"/>
      <point x="299" y="560" type="line"/>
      <point x="299" y="0" type="line"/>
      <point x="237" y="0" type="line"/>
      <point x="237" y="560" type="line"/>
      <point x="82" y="560" type="line"/>
      <point x="82" y="612" type="line"/>
      <point x="237" y="612" type="line"/>
      <point x="237" y="704" type="line" smooth="yes"/>
      <point x="237" y="742"/>
      <point x="244" y="782"/>
      <point x="272" y="811" type="curve" smooth="yes"/>
      <point x="298" y="837"/>
      <point x="337" y="847"/>
      <point x="375" y="847" type="curve" smooth="yes"/>
      <point x="414" y="847"/>
      <point x="453" y="837"/>
      <point x="479" y="811" type="curve" smooth="yes"/>
      <point x="491" y="798"/>
      <point x="499" y="782"/>
      <point x="505" y="765" type="curve"/>
    </contour>
  </outline>
</glyph>
<glyph name="g" format="1">
  <advance width="669"/>
  <unicode hex="0067"/>
  <outline>
    <contour>
      <point x="334" y="631" type="curve" smooth="yes"/>
      <point x="420" y="631"/>
      <point x="506" y="605"/>
      <point x="556" y="542" type="curve"/>
      <point x="556" y="612" type="line"/>
      <point x="617" y="612" type="line"/>
      <point x="617" y="-26" type="line" smooth="yes"/>
      <point x="617" y="-93"/>
      <point x="599" y="-160"/>
      <point x="547" y="-204" type="curve" smooth="yes"/>
      <point x="490" y="-252"/>
      <point x="411" y="-264"/>
      <point x="334" y="-264" type="curve" smooth="yes"/>
      <point x="258" y="-264"/>
      <point x="179" y="-252"/>
      <point x="122" y="-204" type="curve" smooth="yes"/>
      <point x="102" y="-187"/>
      <point x="87" y="-167"/>
      <point x="76" y="-145" type="curve"/>
      <point x="133" y="-120" type="line"/>
      <point x="142" y="-137"/>
      <point x="153" y="-152"/>
      <point x="168" y="-165" type="curve" smooth="yes"/>
      <point x="213" y="-202"/>
      <point x="275" y="-211"/>
      <point x="334" y="-211" type="curve" smooth="yes"/>
      <point x="394" y="-211"/>
      <point x="456" y="-202"/>
      <point x="500" y="-165" type="curve" smooth="yes"/>
      <point x="541" y="-131"/>
      <point x="556" y="-78"/>
      <point x="556" y="-26" type="curve" smooth="yes"/>
      <point x="556" y="89" type="line"/>
      <point x="506" y="26"/>
      <point x="420" y="0"/>
      <point x="334" y="0" type="curve" smooth="yes"/>
      <point x="254" y="0"/>
      <point x="174" y="21"/>
      <point x="122" y="79" type="curve" smooth="yes"/>
      <point x="64" y="144"/>
      <point x="51" y="233"/>
      <point x="51" y="317" type="curve" smooth="yes"/>
      <point x="51" y="401"/>
      <point x="64" y="489"/>
      <point x="122" y="553" type="curve" smooth="yes"/>
      <point x="174" y="611"/>
      <point x="254" y="631"/>
    </contour>
    <contour>
      <point x="556" y="317" type="curve" smooth="yes"/>
      <point x="556" y="387"/>
      <point x="547" y="458"/>
      <point x="500" y="513" type="curve"/>
      <point x="461" y="560"/>
      <point x="398" y="578"/>
      <point x="334" y="578" type="curve" smooth="yes"/>
      <point x="271" y="578"/>
      <point x="208" y="560"/>
      <point x="168" y="513" type="curve" smooth="yes"/>
      <point x="122" y="458"/>
      <point x="113" y="387"/>
      <point x="113" y="317" type="curve" smooth="yes"/>
      <point x="113" y="246"/>
      <point x="122" y="174"/>
      <point x="168" y="119" type="curve" smooth="yes"/>
      <point x="208" y="72"/>
      <point x="271" y="53"/>
      <point x="334" y="53" type="curve" smooth="yes"/>
      <point x="398" y="53"/>
      <point x="461" y="72"/>
      <point x="500" y="119" type="curve"/>
      <point x="547" y="174"/>
      <point x="556" y="246"/>
    </contour>
  </outline>
</glyph>
<glyph name="h" format="1">
  <advance width="632"/>
  <unicode hex="0068"/>
  <outline>
    <contour>
      <point x="131" y="0" type="line"/>
      <point x="69" y="0" type="line"/>
      <point x="69" y="828" type="line"/>
      <point x="131" y="828" type="line"/>
    </contour>
    <component base="n"/>
  </outline>
</glyph>
<glyph name="i" format="1">
  <advance width="260"/>
  <unicode hex="0069"/>
  <outline>
    <contour>
      <point x="82" y="783" type="curve" smooth="yes"/>
      <point x="82" y="811"/>
      <point x="99" y="828"/>
      <point x="130" y="828" type="curve" smooth="yes"/>
      <point x="161" y="828"/>
      <point x="178" y="811"/>
      <point x="178" y="783" type="curve" smooth="yes"/>
      <point x="178" y="754"/>
      <point x="161" y="737"/>
      <point x="130" y="737" type="curve" smooth="yes"/>
      <point x="99" y="737"/>
      <point x="82" y="754"/>
    </contour>
    <contour>
      <point x="98" y="0" type="line"/>
      <point x="98" y="612" type="line"/>
      <point x="160" y="612" type="line"/>
      <point x="160" y="0" type="line"/>
    </contour>
  </outline>
</glyph>
<glyph name="j" format="1">
  <advance width="369"/>
  <unicode hex="006A"/>
  <outline>
    <contour>
      <point x="121" y="-223" type="line" smooth="yes"/>
      <point x="202" y="-223"/>
      <point x="282" y="-179"/>
      <point x="282" y="-76" type="curve"/>
      <point x="282" y="0" type="line"/>
      <point x="220" y="0" type="line"/>
      <point x="220" y="-76" type="line"/>
      <point x="220" y="-150"/>
      <point x="176" y="-177"/>
      <point x="117" y="-177" type="curve" smooth="yes"/>
      <point x="42" y="-177" type="line"/>
      <point x="42" y="-222" type="line"/>
    </contour>
    <component base="i" xOffset="122"/>
  </outline>
</glyph>
<glyph name="k" format="1">
  <advance width="665"/>
  <unicode hex="006B"/>
  <outline>
    <contour>
      <point x="109" y="284" type="line"/>
      <point x="131" y="277" type="line"/>
      <point x="131" y="828" type="line"/>
      <point x="69" y="828" type="line"/>
      <point x="69" y="0" type="line"/>
      <point x="131" y="0" type="line"/>
      <point x="131" y="258" type="line"/>
      <point x="109" y="219" type="line"/>
      <point x="315" y="378" type="line"/>
      <point x="284" y="390" type="line"/>
      <point x="546" y="0" type="line"/>
      <point x="613" y="0" type="line"/>
      <point x="329" y="425" type="line"/>
      <point x="329" y="390" type="line"/>
      <point x="613" y="612" type="line"/>
      <point x="529" y="612" type="line"/>
    </contour>
  </outline>
</glyph>
<glyph name="l" format="1">
  <advance width="200"/>
  <unicode hex="006C"/>
  <outline>
    <contour>
      <point x="69" y="0" type="line"/>
      <point x="69" y="828" type="line"/>
      <point x="131" y="828" type="line"/>
      <point x="131" y="0" type="line"/>
    </contour>
  </outline>
</glyph>
<glyph name="p" format="1">
  <advance width="687"/>
  <unicode hex="0070"/>
  <outline>
    <contour>
      <point x="118" y="81" type="line"/>
      <point x="170" y="25"/>
      <point x="247" y="-19"/>
      <point x="352" y="-19" type="curve" smooth="yes"/>
      <point x="551" y="-19"/>
      <point x="635" y="108"/>
      <point x="635" y="307" type="curve" smooth="yes"/>
      <point x="635" y="504"/>
      <point x="551" y="631"/>
      <point x="352" y="631" type="curve" smooth="yes"/>
      <point x="266" y="631"/>
      <point x="173" y="592"/>
      <point x="121" y="518" type="curve"/>
      <point x="131" y="518" type="line"/>
      <point x="118" y="612" type="line"/>
      <point x="69" y="612" type="line"/>
      <point x="69" y="-245" type="line"/>
      <point x="131" y="-245" type="line"/>
      <point x="131" y="89" type="line"/>
    </contour>
    <contour>
      <point x="118" y="143" type="curve"/>
      <point x="131" y="101" type="line"/>
      <point x="131" y="484" type="line"/>
      <point x="121" y="452" type="line"/>
      <point x="164" y="507"/>
      <point x="236" y="578"/>
      <point x="352" y="578" type="curve" smooth="yes"/>
      <point x="513" y="578"/>
      <point x="574" y="461"/>
      <point x="574" y="307" type="curve" smooth="yes"/>
      <point x="574" y="153"/>
      <point x="514" y="34"/>
      <point x="352" y="34" type="curve" smooth="yes"/>
      <point x="227" y="34"/>
      <point x="157" y="96"/>
    </contour>
  </outline>
</glyph>
<glyph name="r" format="1">
  <advance width="537"/>
  <unicode hex="0072"/>
  <outline>
    <contour>
      <point x="408" y="497" type="line"/>
      <point x="389" y="551"/>
      <point x="332" y="578"/>
      <point x="268" y="578" type="curve" smooth="yes"/>
      <point x="224" y="578"/>
      <point x="180" y="567"/>
      <point x="152" y="535" type="curve" smooth="yes"/>
      <point x="120" y="500"/>
      <point x="113" y="452"/>
      <point x="113" y="406" type="curve" smooth="yes"/>
      <point x="113" y="0" type="line"/>
      <point x="51" y="0" type="line"/>
      <point x="51" y="612" type="line"/>
      <point x="113" y="612" type="line"/>
      <point x="113" y="581" type="line"/>
      <point x="153" y="617"/>
      <point x="211" y="631"/>
      <point x="268" y="631" type="curve" smooth="yes"/>
      <point x="329" y="631"/>
      <point x="390" y="617"/>
      <point x="431" y="575" type="curve" smooth="yes"/>
      <point x="447" y="558"/>
      <point x="459" y="538"/>
      <point x="467" y="517" type="curve"/>
    </contour>
  </outline>
</glyph>
<glyph name="t" format="1">
  <advance width="500"/>
  <unicode hex="0074"/>
  <outline>
    <contour>
      <point x="54" y="586" type="line"/>
      <point x="54" y="639" type="line"/>
      <point x="174" y="639" type="line"/>
      <point x="174" y="828" type="line"/>
      <point x="236" y="828" type="line"/>
      <point x="236" y="639" type="line"/>
      <point x="401" y="639" type="line"/>
      <point x="401" y="586" type="line"/>
      <point x="236" y="586" type="line"/>
      <point x="236" y="139" type="line"/>
      <point x="174" y="139" type="line"/>
      <point x="174" y="586" type="line"/>
    </contour>
    <contour>
      <point x="335" y="-9" type="line" smooth="yes"/>
      <point x="254" y="-9"/>
      <point x="174" y="37"/>
      <point x="174" y="139" type="curve"/>
      <point x="236" y="139" type="line"/>
      <point x="236" y="65"/>
      <point x="280" y="38"/>
      <point x="339" y="38" type="curve" smooth="yes"/>
      <point x="414" y="37" type="line"/>
      <point x="414" y="-6" type="line"/>
    </contour>
  </outline>
</glyph>
<glyph name="v" format="1">
  <advance width="632"/>
  <unicode hex="0076"/>
  <outline>
    <contour>
      <point x="51" y="612" type="line"/>
      <point x="115" y="612" type="line"/>
      <point x="319" y="29" type="line"/>
      <point x="523" y="612" type="line"/>
      <point x="581" y="612" type="line"/>
      <point x="366" y="0" type="line"/>
      <point x="266" y="0" type="line"/>
    </contour>
  </outline>
</glyph>
<glyph name="w" format="1">
  <advance width="980"/>
  <unicode hex="0077"/>
  <outline>
    <contour>
      <point x="304.0" y="0.0" type="line"/>
      <point x="511.0" y="586.0" type="line"/>
      <point x="477.0" y="586.0" type="line"/>
      <point x="681.0" y="0.0" type="line"/>
      <point x="765.0" y="0.0" type="line"/>
      <point x="952.0" y="612.0" type="line"/>
      <point x="894.0" y="612.0" type="line"/>
      <point x="716.0" y="10.0" type="line"/>
      <point x="733.0" y="10.0" type="line"/>
      <point x="523.0" y="612.0" type="line"/>
      <point x="463.0" y="612.0" type="line"/>
      <point x="252.0" y="10.0" type="line"/>
      <point x="269.0" y="10.0" type="line"/>
      <point x="92.0" y="612.0" type="line"/>
      <point x="28.0" y="612.0" type="line"/>
      <point x="218.0" y="0.0" type="line"/>
    </contour>
  </outline>
</glyph>
<glyph name="x" format="1">
  <advance width="610"/>
  <unicode hex="0078"/>
  <outline>
    <contour>
      <point x="51" y="612" type="line"/>
      <point x="125" y="612" type="line"/>
      <point x="301" y="364" type="line"/>
      <point x="473" y="612" type="line"/>
      <point x="540" y="612" type="line"/>
      <point x="336" y="316" type="line"/>
      <point x="559" y="0" type="line"/>
      <point x="485" y="0" type="line"/>
      <point x="299" y="263" type="line"/>
      <point x="119" y="0" type="line"/>
      <point x="51" y="0" type="line"/>
      <point x="265" y="311" type="line"/>
    </contour>
  </outline>
</glyph>
<glyph name="y" format="1">
  <advance width="632"/>
  <unicode hex="0079"/>
  <outline>
    <contour>
      <point x="51" y="612" type="curve"/>
      <point x="111" y="612" type="line"/>
      <point x="330" y="41" type="line"/>
      <point x="306" y="41" type="line"/>
      <point x="523" y="612" type="line"/>
      <point x="581" y="612" type="line"/>
      <point x="250" y="-245" type="line"/>
      <point x="192" y="-245" type="line"/>
      <point x="296" y="22" type="line"/>
      <point x="296" y="-24" type="line"/>
      <point x="296" y="-24"/>
      <point x="51" y="612"/>
    </contour>
  </outline>
</glyph>
<glyph name="bar" format="1">
  <advance width="254"/>
  <unicode hex="007C"/>
  <outline>
    <contour>
      <point x="96" y="-54" type="line"/>
      <point x="96" y="920" type="line"/>
      <point x="158" y="920" type="line"/>
      <point x="158" y="-54" type="line"/>
    </contour>
  </outline>
</glyph>
